Blade.Runner.remasteredDC.DvDRip.XviD

Format : AVI
Format/Info : Audio Video Interleave
File size : 731 MiB
Duration : 1h 51mn
Overall bit rate : 914 Kbps
Encoded by : Vice / Vicerock/Vicez
Subject : Blade Runner Remastered Directors Cut DvDRip XviD
Recorded date : 30 June 2010
Writing application : VirtualDubMod 1.5.10.1 (build 2366/release)
Writing library : VirtualDub build 32618/release
Comment : Vice Movie

Video
ID : 0
Format : MPEG-4 Visual
Format profile : AdvancedSimple@L5
Format settings, BVOP : Yes
Format settings, QPel : No
Format settings, GMC : No warppoints
Format settings, Matrix : Default (H.263)
Muxing mode : Packed bitstream
Codec ID : XVID
Codec ID/Hint : XviD
Duration : 1h 51mn
Bit rate : 808 Kbps
Width : 608 pixels
Height : 246 pixels
Display aspect ratio : 2.472
Frame rate : 25.000 fps
Resolution : 24 bits
Colorimetry : 4:2:0
Scan type : Progressive
Bits/(Pixel*Frame) : 0.216
Stream size : 646 MiB (88%)
Writing library : XviD 1.1.2 (UTC 2006-11-01)

Audio
ID : 1
Format : MPEG Audio
Format version : Version 1
Format profile : Layer 3
Codec ID : 55
Codec ID/Hint : MP3
Duration : 1h 51mn
Bit rate mode : Constant
Bit rate : 96.0 Kbps
Channel(s) : 2 channels
Sampling rate : 48.0 KHz
Resolution : 16 bits
Stream size : 76.8 MiB (11%)
Alignment : Aligned on interleaves
Interleave, duration : 40 ms (1.00 video frame)
Interleave, preload duration : 504 ms

Blade Runner is a 1982 American science fiction film, directed by Ridley Scott and starring Harrison Ford, Rutger Hauer, and Sean Young. The screenplay, written by Hampton Fancher and David Peoples, is based loosely on the novel Do Androids Dream of Electric Sheep? by Philip K. Dick. The film depicts a dystopian Los Angeles in November 2019 in which genetically engineered organic robots called replicants—visually indistinguishable from adult humans—are manufactured by the all-powerful Tyrell Corporation as well as other mega manufacturers around the world. Their use on Earth is banned, and replicants are exclusively used for dangerous, menial or leisure work on Earth's off-world colonies. Replicants who defy the ban and return to Earth are hunted down and "retired" by police special operatives known as "blade runners". The plot focuses on a brutal and cunning group of recently escaped replicants hiding in Los Angeles and the semi-retired blade runner, Rick Deckard, who reluctantly agrees to take on one more assignment to hunt them all down, while searching for his own identity.

Starring->Harrison Ford,Rutger Hauer,Sean Young,Edward JamesOlmos,M. Emmet Walsh & Daryl Hannah 
http://www.imdb.com/title/tt0083658/

PLEASE SEED AND ENJOY THANKS

screen shots 
http://img534.imageshack.us/img534/8899/bladerunnerxvidviceavis.jpg 
http://img51.imageshack.us/img51/8899/bladerunnerxvidviceavis.jpg 
http://img408.imageshack.us/img408/8899/bladerunnerxvidviceavis.jpg 
http://img808.imageshack.us/img808/8899/bladerunnerxvidviceavis.jpg

My Other Torrents
  
http://thepiratebay.org/user/vicerock/